<?xml version="1.0" encoding="UTF-8"?><svg id="Layer_1" xmlns="http://www.w3.org/2000/svg" viewBox="0 0 800 800"><defs><style>.cls-1{fill:#f1204a;}.cls-2{fill:#fff;}.cls-3{fill:#2dccd3;}</style></defs><circle class="cls-2" cx="400" cy="400" r="400"/><path id="_Path_" class="cls-3" d="m360.83,341.82v-15.53c-7.18-1.2-14.37-1.58-20.32-1.58-80.97,0-148.76,64.98-148.76,145.56,0,52.9,25.74,98.12,64.87,124.88-27.26-27.05-44.16-64.91-44.16-107.77,0-80.44,67.58-145.38,148.37-145.56Zm46.66-182.22v313.44c0,41.06-29.51,67.48-65.4,67.48-11.9,0-23.21-2.78-33.03-7.92,12.47,15.92,32.15,25.08,53.74,25.08,35.89,0,65.4-26.41,65.4-67.51V176.72h56.88c-1.55-5.46-2.82-11.16-3.8-17.12h-73.78Zm130.76,92.45c18.1,18.67,40.68,30.04,63.43,35.22v-14.02c-21.38-1.51-43.74-8.24-63.43-21.2Z"/><path id="_Path_-2" class="cls-1" d="m538.26,252.05c-17.5-18-30.85-42.79-36.27-75.33h-16.9c9.65,35.18,29.51,59.73,53.18,75.33Zm63.43,35.22v59.34c-32.86,0-63.96-6.27-91.36-24.72,31.91,31.91,70.61,41.87,112.06,41.87v-73.39c-6.83-.46-13.81-1.48-20.71-3.1Zm-292.62,245.33c-8.8-11.13-14.05-25.53-14.05-42.44,0-47.44,37.08-72.51,86.53-67.3v-79.45c-7.18-1.2-14.37-1.58-20.36-1.58h-.35v63.88c-49.45-5.18-86.53,19.86-86.53,67.34,0,27.75,14.19,48.81,34.76,59.55Zm180.56-64.73c0,100.09-76.56,153.13-148.72,153.13-31.24,0-60.26-9.44-84.28-25.85,26.98,26.77,64.1,42.97,104.98,42.97,72.16,0,148.72-53.04,148.72-153.13v-163.09c-7.18-4.86-14.09-10.53-20.71-17.15v163.13Z"/><path id="_Path_-3" d="m340.9,620.99c72.16,0,148.72-53.04,148.72-153.13v-163.13c6.62,6.62,13.52,12.29,20.71,17.15,27.4,18.45,58.5,24.72,91.36,24.72v-59.34c-22.75-5.18-45.33-16.55-63.43-35.22-23.67-15.6-43.53-40.15-53.18-75.33h-56.88v313.44c0,41.1-29.51,67.51-65.4,67.51-21.59,0-41.28-9.16-53.74-25.08-20.57-10.74-34.76-31.8-34.76-59.55,0-47.47,37.08-72.51,86.53-67.34v-63.88c-80.79.18-148.37,65.12-148.37,145.56,0,42.86,16.9,80.72,44.16,107.77,24.02,16.41,53.04,25.85,84.28,25.85Z"/></svg>